<svg viewBox="0 0 60 60" xmlns="http://www.w3.org/2000/svg"><g id="Colour"><path d="m30.032 59.469a.5.5 0 0 1 -.272-.919l2.017-1.312-3.627 2.094a.5.5 0 0 1 -.528-.849l5.13-3.427-7.161 4.133a.5.5 0 0 1 -.526-.85l3.635-2.391-5.237 3.022a.5.5 0 0 1 -.533-.845l6.282-4.317-8.233 4.753a.5.5 0 0 1 -.533-.845l5.607-3.847-7.271 4.2a.5.5 0 0 1 -.529-.846l3.861-2.6-5.1 2.945a.5.5 0 0 1 -.533-.845l4.019-2.76-5.183 2.992a.5.5 0 0 1 -.538-.842l4.408-3.1-5.541 3.2a.5.5 0 0 1 -.535-.844l2.7-1.87-3.216 1.857a.5.5 0 0 1 -.545-.837l3.251-2.37-3.021 1.738a.5.5 0 0 1 -.567-.819l3.141-2.586-2.574 1.487a.5.5 0 0 1 -.611-.778l1.9-1.991-1.288.743a.5.5 0 0 1 -.74-.531l.327-1.621a.5.5 0 0 1 -.087-.9l.5-.289a.5.5 0 0 1 .741.531l-.282 1.4 3.345-1.93a.5.5 0 0 1 .611.777l-1.9 1.99 4.8-2.77a.5.5 0 0 1 .567.818l-3.142 2.582 5.9-3.407a.5.5 0 0 1 .545.837l-3.25 2.37 5.56-3.21a.5.5 0 0 1 .536.844l-2.7 1.87 4.7-2.716a.5.5 0 0 1 .538.842l-4.408 3.1 6.839-3.948a.5.5 0 0 1 .532.845l-4.013 2.751 6.234-3.6a.5.5 0 0 1 .529.848l-3.857 2.6 5.979-3.451a.5.5 0 0 1 .533.845l-5.613 3.851 8.138-4.7a.5.5 0 0 1 .533.845l-6.276 4.314 8.935-5.159a.5.5 0 0 1 .526.851l-3.641 2.4 5.629-3.249a.5.5 0 0 1 .528.849l-5.128 3.428 6.871-3.97a.5.5 0 0 1 .522.851l-2.013 1.309 1.491-.86a.5.5 0 0 1 .529.847l-3.3 2.224 2.772-1.6a.5.5 0 0 1 .538.842l-3.021 2.124 2.483-1.432a.5.5 0 0 1 .589.8l-3.224 2.97 2.627-1.517a.5.5 0 0 1 .5.866l-6.533 3.772a.5.5 0 0 1 -.589-.8l3.224-2.97-8.254 4.764a.5.5 0 0 1 -.539-.841l3.023-2.129-5.557 3.207a.5.5 0 0 1 -.529-.848l3.294-2.22-5.471 3.161a.5.5 0 0 1 -.25.069z" fill="#9b83d9"/><path d="m30.981 55.438a.5.5 0 0 1 -.272-.919l1.13-.736-2.739 1.581a.5.5 0 0 1 -.536-.843l9.261-6.43-12.285 7.094a.5.5 0 0 1 -.523-.851l7.639-5-9.663 5.578a.5.5 0 0 1 -.518-.854l5.663-3.6-7.12 4.11a.5.5 0 0 1 -.523-.851l11.605-7.562-13.584 7.845a.5.5 0 0 1 -.516-.859l.2-.125-1.032.595a.5.5 0 0 1 -.518-.855l10.169-6.434-11.5 6.638a.5.5 0 0 1 -.514-.857l5.448-3.374-6.3 3.636a.5.5 0 0 1 -.513-.858l4.431-2.73-4.971 2.876a.5.5 0 0 1 -.519-.853l17.076-10.941-17.177 9.917a.5.5 0 0 1 -.513-.857l8.565-5.307-8.052 4.649a.5.5 0 0 1 -.515-.857l12.326-7.718-11.811 6.814a.5.5 0 0 1 -.515-.857l13.247-8.322-12.732 7.355a.5.5 0 0 1 -.515-.857l11.953-7.475-11.438 6.6a.5.5 0 0 1 -.514-.856l11.842-7.405-11.328 6.542a.5.5 0 0 1 -.518-.855l16.257-10.339-15.739 9.086a.5.5 0 0 1 -.519-.853l17.731-11.364-17.213 9.94a.5.5 0 0 1 -.51-.86l.912-.556-.4.231a.5.5 0 0 1 -.518-.854l16.282-10.359-15.766 9.1a.5.5 0 0 1 -.514-.857l11.482-7.171-10.968 6.335a.5.5 0 0 1 -.516-.856l13.6-8.558-13.084 7.556a.5.5 0 0 1 -.511-.858l4.584-2.816-4.073 2.351a.5.5 0 0 1 -.512-.857l8.025-4.966-7.513 4.337a.5.5 0 0 1 -.513-.858l8.948-5.549-8.435 4.87a.5.5 0 0 1 -.517-.855l15.482-9.818-14.965 8.639a.5.5 0 0 1 -.52-.852l17.1-11.026-16.58 9.575a.5.5 0 0 1 -.519-.854l12.393-7.923-11.874 6.856a.5.5 0 0 1 -.526-.85l13.4-8.868-12.874 7.431a.5.5 0 0 1 -.528-.848l10.949-7.335-10.421 6.014a.5.5 0 0 1 -.521-.853l4.242-2.744-3.72 2.147a.5.5 0 0 1 -.529-.846l5.962-4.023-5.433 3.136a.5.5 0 0 1 -.532-.846l4.232-2.893-3.7 2.135a.5.5 0 0 1 -.547-.835l4.548-3.349-4 2.31a.5.5 0 0 1 -.572-.816l3.751-3.154-3.181 1.832a.5.5 0 0 1 -.57-.817l1.155-.965-.585.337a.5.5 0 0 1 -.679-.687l.94-1.6a.5.5 0 0 1 -.437-.9l1.569-.9a.5.5 0 0 1 .682.686l-.935 1.591 3.943-2.277a.5.5 0 0 1 .571.816l-1.156.967 3.09-1.783a.5.5 0 0 1 .572.815l-3.753 3.156 6.884-3.971a.5.5 0 0 1 .547.835l-4.549 3.346 7.248-4.181a.5.5 0 0 1 .533.845l-4.229 2.89 6.48-3.735a.5.5 0 0 1 .529.846l-5.969 4.022 8.44-4.868a.5.5 0 0 1 .521.852l-4.247 2.748 6.234-3.6a.5.5 0 0 1 .529.847l-10.946 7.336 14.181-8.183a.5.5 0 0 1 .526.849l-13.398 8.864 16.826-9.713a.5.5 0 0 1 .52.853l-12.395 7.92 15.103-8.719a.5.5 0 0 1 .52.853l-17.107 11.027 18.125-10.464a.5.5 0 0 1 .517.855l-15.468 9.809 15.079-8.706a.5.5 0 0 1 .513.858l-8.965 5.559 8.452-4.879a.5.5 0 0 1 .512.858l-8.025 4.966 7.513-4.337a.5.5 0 0 1 .511.858l-4.584 2.816 4.073-2.351a.5.5 0 0 1 .516.855l-13.6 8.559 13.084-7.557a.5.5 0 0 1 .514.857l-11.482 7.172 10.968-6.332a.5.5 0 0 1 .518.854l-16.29 10.362 15.773-9.106a.5.5 0 0 1 .51.859l-.882.539.372-.214a.5.5 0 0 1 .519.853l-17.734 11.363 17.215-9.94a.5.5 0 0 1 .518.854l-16.248 10.335 15.73-9.081a.5.5 0 0 1 .514.857l-11.856 7.414 11.342-6.548a.5.5 0 0 1 .515.857l-11.936 7.466 11.421-6.594a.5.5 0 0 1 .515.856l-13.247 8.322 12.732-7.35a.5.5 0 0 1 .515.856l-12.336 7.728 11.824-6.826a.5.5 0 0 1 .513.857l-8.568 5.307 8.052-4.649a.5.5 0 0 1 .519.854l-17.069 10.934 16.55-9.549a.5.5 0 0 1 .512.858l-4.433 2.727 3.923-2.264a.5.5 0 0 1 .513.857l-5.452 3.377 4.937-2.855a.5.5 0 0 1 .517.856l-10.174 6.444 9.657-5.575a.5.5 0 0 1 .512.859l-.435.267a.5.5 0 0 1 .445.889l-11.607 7.56 11.085-6.4a.5.5 0 0 1 .518.855l-5.664 3.6 5.146-2.97a.5.5 0 0 1 .523.851l-7.626 4.988 7.1-4.1a.5.5 0 0 1 .535.843l-9.262 6.433 8.73-5.04a.5.5 0 0 1 .522.852l-1.133.736.611-.352a.5.5 0 0 1 .528.848l-2.144 1.438 1.616-.932a.5.5 0 0 1 .533.845l-1.254.857.717-.413a.5.5 0 0 1 .556.827l-2.27 1.765 1.714-.99a.5.5 0 0 1 .6.788l-.679.673a.493.493 0 0 1 .459.249.5.5 0 0 1 -.183.683l-2.98 1.721a.5.5 0 0 1 -.6-.788l.528-.523-4.675 2.7a.5.5 0 0 1 -.556-.827l2.271-1.765-5.519 3.186a.5.5 0 0 1 -.533-.845l1.25-.858-3.383 1.953a.5.5 0 0 1 -.529-.848l2.145-1.44-4.1 2.367a.5.5 0 0 1 -.252.071z" fill="#b19ae9"/><path d="m30.313 28.459a.5.5 0 0 1 -.276-.917l.348-.23-1.785 1.031a.5.5 0 0 1 -.536-.844l5.657-3.92-7.972 4.6a.5.5 0 0 1 -.53-.847l7.071-4.8-9.223 5.328a.5.5 0 0 1 -.518-.854l1.2-.759-2.269 1.31a.5.5 0 0 1 -.527-.85l9.273-6.147-11.126 6.418a.5.5 0 0 1 -.517-.855l4.649-2.946-5.7 3.291a.5.5 0 0 1 -.519-.854l8.687-5.569-9.38 5.413a.5.5 0 0 1 -.513-.857l1.529-.951-1.056.61a.5.5 0 0 1 -.521-.853l10.887-7.024-10.366 5.984a.5.5 0 0 1 -.519-.853l8.339-5.351-7.82 4.516a.5.5 0 0 1 -.518-.855l4.093-2.6-3.576 2.064a.5.5 0 0 1 -.52-.852l4.265-2.75-3.745 2.162a.5.5 0 0 1 -.53-.847l6.672-4.514-6.142 3.546a.5.5 0 0 1 -.524-.85l1.435-.943-.911.527a.5.5 0 0 1 -.543-.838l4.939-3.569-4.4 2.538a.5.5 0 0 1 -.534-.843l.559-.386-.025.014a.5.5 0 0 1 -.583-.806l3.336-2.971-2.749 1.588a.5.5 0 0 1 -.587-.8l1-.91-.414.239a.5.5 0 0 1 -.7-.643l.562-1.215a.52.52 0 0 1 -.457-.25.5.5 0 0 1 .183-.683l1.1-.632a.5.5 0 0 1 .7.643l-.52 1.126 3.062-1.769a.5.5 0 0 1 .587.8l-1 .911 2.969-1.711a.5.5 0 0 1 .582.8l-3.335 2.973 6.542-3.773a.5.5 0 0 1 .534.843l-.552.381 2.122-1.224a.5.5 0 0 1 .543.838l-4.942 3.57 7.642-4.408a.5.5 0 0 1 .524.85l-1.433.94 3.1-1.79a.5.5 0 0 1 .53.846l-6.678 4.512 9.288-5.358a.5.5 0 0 1 .521.852l-4.26 2.748 6.234-3.6a.5.5 0 0 1 .518.854l-4.1 2.606 5.994-3.46a.5.5 0 0 1 .519.853l-8.324 5.34 9.343-5.393a.5.5 0 0 1 .521.852l-10.9 7.03 10.423-6.018a.5.5 0 0 1 .513.857l-1.533.954 1.023-.59a.5.5 0 0 1 .519.854l-8.68 5.568 8.159-4.707a.5.5 0 0 1 .517.855l-4.638 2.938 4.126-2.382a.5.5 0 0 1 .526.85l-9.278 6.15 8.752-5.051a.5.5 0 0 1 .518.854l-1.184.753.666-.385a.5.5 0 0 1 .53.847l-7.069 4.8 6.539-3.776a.5.5 0 0 1 .535.844l-5.661 3.92 5.125-2.959a.5.5 0 0 1 .526.85l-.447.3a.5.5 0 0 1 .471.871l-3.636 2.711 3.082-1.779a.5.5 0 0 1 .559.825l-1.718 1.356 1.159-.669a.5.5 0 0 1 .669.706l-.752 1.154a.5.5 0 0 1 .487.872l-1.8 1.038a.5.5 0 0 1 -.613-.089.5.5 0 0 1 -.056-.617l.752-1.153-5.348 3.088a.5.5 0 0 1 -.56-.825l1.72-1.356-4.386 2.531a.5.5 0 0 1 -.55-.833l3.635-2.717-6.358 3.67a.494.494 0 0 1 -.248.067z" fill="#767d84"/><path d="m24.479 23.471a.5.5 0 0 1 -.278-.915l3.179-2.134-5.164 2.978a.5.5 0 0 1 -.537-.841l8.682-6.087-10.081 5.828a.5.5 0 0 1 -.525-.85l5.43-3.587-4.9 2.831a.5.5 0 0 1 -.53-.846l5.045-3.427-4.523 2.61a.5.5 0 0 1 -.532-.845l3.024-2.062-2.492 1.438a.5.5 0 0 1 -.543-.838l3.254-2.349-2.711 1.564a.5.5 0 0 1 -.583-.8l3.637-3.251-3.054 1.763a.5.5 0 0 1 -.641-.744l1.687-2.127-1.046.6a.5.5 0 0 1 -.673-.7l.335-.529a.5.5 0 0 1 -.077-.9l1.128-.65a.5.5 0 0 1 .673.7l-.127.2 1.564-.901a.5.5 0 0 1 .641.743l-1.686 2.126 4.97-2.87a.5.5 0 0 1 .583.8l-3.638 3.255 7.03-4.054a.5.5 0 0 1 .543.838l-3.254 2.348 5.52-3.186a.5.5 0 0 1 .532.845l-3.024 2.063 5.037-2.908a.5.5 0 0 1 .531.846l-5.045 3.414 7.235-4.176a.5.5 0 0 1 .526.849l-5.431 3.588 5.55-3.2a.5.5 0 0 1 .537.842l-8.688 6.087 8.152-4.706a.5.5 0 0 1 .528.847l-3.179 2.133 2.651-1.524a.5.5 0 0 1 .531.845l-2.023 1.379 1.492-.861a.5.5 0 0 1 .559.825l-4.19 3.31 3.631-2.098a.5.5 0 0 1 .576.812l-2.41 2.079 1.834-1.059a.5.5 0 0 1 .577.811l-.418.357a.5.5 0 0 1 .458.83l-.3.321a.5.5 0 0 1 .18.928l-2.285 1.321a.5.5 0 0 1 -.618-.771l.054-.059-1.438.83a.5.5 0 0 1 -.577-.81l.3-.261-1.854 1.071a.5.5 0 0 1 -.576-.811l2.41-2.079-5.01 2.89a.5.5 0 0 1 -.56-.825l4.192-3.31-7.164 4.135a.5.5 0 0 1 -.531-.845l2.028-1.382-3.86 2.227a.5.5 0 0 1 -.25.071z" fill="#5ec3e7"/><path d="m24.441 23.505a.5.5 0 0 1 -.306-.895l4.021-3.124-4.136 2.388a.5.5 0 0 1 -.554-.83l5.534-4.234-3.78 2.182a.5.5 0 0 1 -.536-.843l1.55-1.081-.281.162a.5.5 0 0 1 -.536-.842l1.722-1.2-.441.254a.5.5 0 0 1 -.582-.807l3.075-2.735-1.344.776a.5.5 0 0 1 -.684-.681l1.269-2.217a.467.467 0 0 1 -.091-.115.5.5 0 0 1 .182-.682l.664-.383a.494.494 0 0 1 .6.078.5.5 0 0 1 .081.6l-.919 1.606 3.994-2.306a.5.5 0 0 1 .582.807l-3.075 2.732 6.167-3.559a.5.5 0 0 1 .536.842l-1.722 1.202.466-.269a.5.5 0 0 1 .537.843l-1.554 1.086.288-.166a.5.5 0 0 1 .554.83l-5.533 4.233 3.786-2.184a.5.5 0 0 1 .556.827l-4.021 3.124 2.4-1.386a.5.5 0 0 1 .613.776l-2.385 2.524.531-.307a.5.5 0 0 1 .666.71l-.694 1.045a.581.581 0 0 1 .036.055.5.5 0 0 1 -.183.682l-.661.382a.5.5 0 0 1 -.666-.71l.153-.231-1.65.953a.5.5 0 0 1 -.613-.776l2.386-2.525-5.753 3.322a.5.5 0 0 1 -.249.067z" fill="#74d6f0"/><g fill="#767d84"><path d="m42.048 35.46a.5.5 0 0 1 -.4-.8l.369-.5-1.1.633a.5.5 0 0 1 -.616-.774l.333-.358-.254.147a.5.5 0 0 1 -.627-.1.5.5 0 0 1 -.017-.636l.47-.6a.5.5 0 0 1 -.134-.919l1.637-.945a.5.5 0 0 1 .644.741l-.246.314.908-.523a.5.5 0 0 1 .616.773l-.332.357.294-.169a.5.5 0 0 1 .652.729l-.517.7a.5.5 0 0 1 .193.93l-1.624.938a.5.5 0 0 1 -.249.062z"/><path d="m34.793 39.414a.5.5 0 0 1 -.407-.79l.614-.866-1.349.778a.5.5 0 0 1 -.7-.659l.8-1.565-.18.1a.5.5 0 0 1 -.5-.865l1.639-.947a.5.5 0 0 1 .7.66l-.794 1.564 1.884-1.083a.5.5 0 0 1 .657.723l-.617.866a.5.5 0 0 1 .476.879l-1.969 1.138a.489.489 0 0 1 -.254.067z"/></g></g><g id="Outer_Lines" fill="#262626" data-name="Outer Lines"><path d="m13.436 56.457c5.675 3.086 13.652 3.215 19.878 2.821 4.122-.261 10.4-.731 13.891-3.348 2.291-1.716 1.722-5.25 1.557-8.05.035-1.023-.033-2.178-.033-3.5v-41.454c0-.014-.009-.021-.01-.033a.318.318 0 0 0 0-.087c-1.019-3.99-9.212-2.271-12.193-2.271-6.986 0-14.054-.316-21.033 0-3.326.151-4.222 1.351-4.222 4.607v40.644c0 1.032-.17 2.3-.083 3.406-.188 2.842-.415 5.816 2.248 7.265zm32.264-.613c-4.434 3.212-13.123 2.947-18.146 2.7-3.709-.186-11.77-.46-14.172-3.953a5.35 5.35 0 0 1 -.8-2.606 12.422 12.422 0 0 0 4.118 1.745c8.738 2.711 19.631 2.663 28.217-.679a7.312 7.312 0 0 0 2.513-1.5c-.049 1.716-.407 3.338-1.73 4.293zm-31.916-54.38c1.091-.594 4.26 0 5.442 0h21.763c1.873 0 5.611-.849 6.282 1.718v29.678c0 4.619.409 9.473.1 14.116a.352.352 0 0 0 -.093.218c0 .239.008.493.02.753-.01.108-.014.218-.025.325-.687 6.913-13.708 6.4-18.86 6.234-4.264-.139-10.082-.37-13.827-2.77-2.16-1.383-1.855-2.388-1.855-4.488v-36.048c-.002-1.9-1.164-8.527 1.053-9.736z"/><path d="m15.274 24.971c1.438 3.751 11.385 3.41 14.45 3.461 3.538-.059 11.069.258 14.048-2.332 1.692-1.472.954-4.486.954-6.488 0-4.168.42-8.572 0-12.718-.169-1.672-.307-1.973-1.959-2.326-3.194-.683-7.279 0-10.537 0h-12.6c-1.133 0-3.176-.348-4.033.7-1.362 1.66-.322 6.849-.322 8.8-.001 2.932-1.058 8.147-.001 10.903zm1.452-18.8c.6-1.105-.223-.294 1.054-.741 2.91-1.018 7.876 0 10.965 0h11.925c3.086 0 2.6 1.324 2.6 4.171v12.599c0 1.525.219 2.19-.731 3.237-2.219 2.443-9.369 2.084-12.267 2.132-3.562-.059-7.464-.122-10.859-1.349-2.507-.906-2.691-1.327-2.691-3.508v-12.468c.004-.88-.448-3.244.004-4.071z"/><path d="m20.987 23.34c2.745.573 6.18.064 9.044.01h.759c.02 0 .045-.008.067-.01h7.843a.908.908 0 0 0 .24-.045 1.191 1.191 0 0 0 .326-.077c1.893-.784 1.459-2.212 1.459-4.07 0-2.609.785-6.6 0-9.086-.5-1.577-1.43-1.4-2.907-1.4h-.466a1.319 1.319 0 0 0 -.141-.01h-8c-.028 0-.068.008-.1.01h-.777c-2.695 0-8.661-1.413-9.056 2.3a91.223 91.223 0 0 0 0 9.5c-.002 1.728-.098 2.5 1.709 2.878zm8.453-13.99h5.713c.2 0 .648-.069.976-.057a11.075 11.075 0 0 1 -.807 1.909l-4.762 11.448h-5.713c-.2 0-.648.069-.976.057a11.075 11.075 0 0 1 .807-1.909zm9.836 4.55c0 1.119.781 7.724-.39 8.761-2.315.013-4.689.123-7.067.2l5.624-13.519c2.522.437 1.833 2.152 1.833 4.558zm-18.541-4.3c.648-.9 5.8-.266 7-.266.121 0 .247 0 .369-.007q-2.765 6.648-5.53 13.3c-2.4-.357-1.845-1.76-1.845-4.168v-5.308c-.005-.662-.409-2.972.006-3.545z"/><path d="m42.055 30.434a2.8 2.8 0 0 0 -2.792 2.611 2.555 2.555 0 0 0 2.589 2.518 2.811 2.811 0 0 0 2.885-2.608 2.582 2.582 0 0 0 -2.682-2.521zm-.031 4a1.507 1.507 0 0 1 -1.287-1.474 1.286 1.286 0 0 1 1.115-1.381 1.48 1.48 0 0 1 1.411 1.471c-.037.684-.439 1.439-1.239 1.379z"/><path d="m37.711 36.859c0-.018.014-.034.013-.053-.173-3.225-5.448-2.709-5.449.334 0 3.26 5.288 2.786 5.451-.226.001-.022-.013-.035-.015-.055zm-2.7 1.688a1.71 1.71 0 0 1 -1.274-1.687c0-.758.529-1.628 1.383-1.365a1.758 1.758 0 0 1 1.148 1.651c-.055.685-.432 1.554-1.257 1.401z"/><path d="m28.3 42.671h-2a1.343 1.343 0 0 0 -.966.361c-.176.267.154.3.358.3h2a1.343 1.343 0 0 0 .966-.361c.18-.271-.15-.3-.358-.3z"/><path d="m34.472 42.714h-2a1.928 1.928 0 0 0 -1.024.275c-.21.141-.219.3.08.3h2a1.928 1.928 0 0 0 1.024-.275c.21-.144.219-.3-.08-.3z"/><path d="m22.273 34.557h-2.549v-2.751c0-.192-1.448 0-1.448.388v2.363h-2c-.586 0-1.523.885-.546.885h2.549v2.752c0 .192 1.448 0 1.448-.388v-2.364h2c.586 0 1.523-.885.546-.885z"/><path d="m39.276 44.194v1c0 .319 1.448.088 1.448-.388v-1c0-.319-1.448-.088-1.448.388z"/><path d="m43.276 44.194v1c0 .25 1.448.041 1.448-.388v-1c0-.25-1.448-.041-1.448.388z"/><path d="m37.267 48.058v1c0 .746 1.466.522 1.466-.116v-1c0-.742-1.466-.522-1.466.116z"/><path d="m41.276 48.194v1c0 .2 1.448 0 1.448-.388v-1c0-.199-1.448-.006-1.448.388z"/></g></svg>